HIERARCHY
ROOT Hips
{
  OFFSET 3.13124 94.3669 -3.18751
  CHANNELS  6 Xposition Yposition Zposition Zrotation Xrotation Yrotation
  JOINT LeftUpLeg
  {
    OFFSET 8.64259 1.95398 -2.38835
    CHANNELS 3 Zrotation Xrotation Yrotation
    JOINT LeftLeg
    {
      OFFSET 43.7702 0 0
      CHANNELS 3 Zrotation Xrotation Yrotation
      JOINT LeftFoot
      {
        OFFSET 40.6238 0 0
        CHANNELS 3 Zrotation Xrotation Yrotation
        JOINT LeftToeBase
        {
          OFFSET 12.7242 0 0
          CHANNELS 3 Zrotation Xrotation Yrotation
          End Site
          {
            OFFSET 0 0 0
          }
        }
      }
    }
  }
  JOINT RightUpLeg
  {
    OFFSET -8.2249 1.95398 -2.59336
    CHANNELS 3 Zrotation Xrotation Yrotation
    JOINT RightLeg
    {
      OFFSET 43.5653 0 0
      CHANNELS 3 Zrotation Xrotation Yrotation
      JOINT RightFoot
      {
        OFFSET 40.6238 0 0
        CHANNELS 3 Zrotation Xrotation Yrotation
        JOINT RightToeBase
        {
          OFFSET 12.7242 0 0
          CHANNELS 3 Zrotation Xrotation Yrotation
          End Site
          {
            OFFSET 0 0 0
          }
        }
      }
    }
  }
  JOINT Spine
  {
    OFFSET 0.165834 0.87714 6.61349
    CHANNELS 3 Zrotation Xrotation Yrotation
    JOINT Spine1
    {
      OFFSET 7.38962 1.71661e-005 0
      CHANNELS 3 Zrotation Xrotation Yrotation
      JOINT Spine2
      {
        OFFSET 11.9445 1.14441e-005 0
        CHANNELS 3 Zrotation Xrotation Yrotation
        JOINT Spine3
        {
          OFFSET 14.7254 4.19617e-005 0
          CHANNELS 3 Zrotation Xrotation Yrotation
          JOINT Spine4
          {
            OFFSET 10.9679 0 0
            CHANNELS 3 Zrotation Xrotation Yrotation
            JOINT RightShoulder
            {
              OFFSET 2.46616 -1.6653 3.69651
              CHANNELS 3 Zrotation Xrotation Yrotation
              JOINT RightArm
              {
                OFFSET 13.0012 0 0
                CHANNELS 3 Zrotation Xrotation Yrotation
                JOINT RightForeArm
                {
                  OFFSET 28.7848 1.52588e-005 0
                  CHANNELS 3 Zrotation Xrotation Yrotation
                  JOINT RightHand
                  {
                    OFFSET 26.5688 1.52588e-005 0
                    CHANNELS 3 Zrotation Xrotation Yrotation
                    End Site
                    {
                      OFFSET 0 0 0
                    }
                  }
                }
              }
            }
            JOINT LeftShoulder
            {
              OFFSET 2.38034 -1.29275 -3.75231
              CHANNELS 3 Zrotation Xrotation Yrotation
              JOINT LeftArm
              {
                OFFSET 16.3182 6.10352e-005 0
                CHANNELS 3 Zrotation Xrotation Yrotation
                JOINT LeftForeArm
                {
                  OFFSET 27.0901 0 0
                  CHANNELS 3 Zrotation Xrotation Yrotation
                  JOINT LeftHand
                  {
                    OFFSET 24.5451 1.52588e-005 0
                    CHANNELS 3 Zrotation Xrotation Yrotation
                    End Site
                    {
                      OFFSET 0 0 0
                    }
                  }
                }
              }
            }
            JOINT Neck
            {
              OFFSET 5.0226 -0.0266342 0
              CHANNELS 3 Zrotation Xrotation Yrotation
              JOINT Head
              {
                OFFSET 6.69363 2.86102e-005 0
                CHANNELS 3 Zrotation Xrotation Yrotation
                End Site
                {
                  OFFSET 0 0 0
                }
              }
            }
          }
        }
      }
    }
  }
}
MOTION
Frames:	9
Frame Time:	0.0333333
16.3065 94.4352 -2.38066 -90.3788 -41.7403 -96.8953 -170.151 6.3539 101.114 -12.8468 1.78162 4.84577 36.9535 -1.36929 -2.22273 28.7808 2.91151e-006 4.20511e-006 175.058 5.04864 81.1251 -13.6901 -0.0606611 -0.0360422 66.3998 -4.08901 -2.10532 28.7808 1.3983e-005 2.32281e-005 -0.274326 6.44588 -90.2672 13.9945 -0.283822 1.77254 2.32233 -0.204911 1.78333 -20.2047 -0.803598 1.60529 -0.192077 -0.80361 1.6053 101.497 -37.8892 -83.2501 5.15607 24.546 27.5167 49.5525 44.5664 -64.6471 -9.19619 -0.492824 1.11965 -107.738 -67.0838 60.0194 -4.83009 -23.6109 1.57666 -21.5173 -40.1855 -36.1776 9.79086 1.94742 14.4008 -1.38261 18.6085 21.7877 -12.6755 13.835 21.1197 
15.618 94.6388 -3.41063 -90.9309 -40.3184 -97.33 -170.307 5.7593 100.736 -13.6982 0.905673 4.72418 36.5372 -1.38772 -2.27582 28.7808 2.91151e-006 4.20511e-006 175.242 4.67561 81.6361 -13.5419 -1.60682 -0.121003 66.0357 -3.2811 -1.66331 28.7808 1.3983e-005 2.32281e-005 -0.409583 6.43818 -90.1849 14.0165 -0.497469 1.88032 2.34429 -0.414272 1.90034 -20.1828 -1.03946 1.64371 -0.170187 -1.03948 1.6437 101.323 -38.3427 -83.5573 5.42629 24.9815 25.0793 51.6419 44.4713 -66.4684 -11.2003 -0.450182 -0.532313 -111.15 -66.4223 55.645 -5.78822 -24.8044 2.33044 -33.1488 -38.3899 -50.8048 6.41318 0.777677 6.68391 -1.77823 19.3401 21.9301 -13.9581 14.3626 21.6299 
15.053 94.7183 -4.32492 -91.5022 -38.8314 -97.4428 -170.36 5.28266 100.603 -14.6316 1.53075 4.74251 35.4571 -1.68723 -2.63529 28.7808 2.91151e-006 4.20511e-006 175.631 4.30599 82.3691 -13.542 -3.2243 -0.210047 65.9831 -2.72012 -1.34683 28.7808 1.3983e-005 2.32281e-005 -0.550897 6.45204 -90.1343 13.9972 -0.751096 1.97636 2.3249 -0.663307 2.0081 -20.2029 -1.3111 1.66369 -0.190236 -1.31109 1.66367 100.909 -39.9482 -84.2516 5.92325 25.5403 22.4863 54.8182 43.6681 -69.4059 -11.8627 -0.31711 -2.14984 -112.934 -65.0831 52.9385 -9.23109 -22.913 -10.8777 -27.1042 -42.8523 -41.4042 18.0994 0.748452 -0.177069 -0.98486 20.4467 20.9365 -16.2181 14.8745 23.0391 
14.5405 94.6652 -5.06374 -92.0428 -37.3015 -97.403 -170.226 4.38183 100.602 -14.6787 2.89159 4.76306 34.1562 -2.26673 -3.2877 28.7808 2.91151e-006 4.20511e-006 175.95 4.3189 83.1483 -14.4716 -4.2044 -0.265785 66.2486 -2.04966 -0.963813 28.7808 1.3983e-005 2.32281e-005 -0.701683 6.45106 -90.2568 14.009 -1.02487 1.97267 2.33688 -0.937052 2.01637 -20.1929 -1.57043 1.5741 -0.180273 -1.57047 1.57409 100.488 -41.2381 -84.9414 6.87813 26.0955 20.3692 58.7673 41.3536 -73.3397 -11.6266 -0.359294 -1.63006 -114.601 -64.0345 50.461 -12.5397 -20.935 -11.5051 -14.8695 -27.1478 -36.2049 11.497 -0.75784 -9.68185 -1.17931 21.6967 21.7494 -17.7366 15.6941 23.7309 
14.1016 94.6232 -5.75033 -92.1156 -35.9878 -97.0399 -170.317 4.07638 100.67 -14.413 1.48446 4.79304 31.7441 -3.04488 -4.2794 28.7808 2.91151e-006 4.20511e-006 176.324 4.36646 83.9058 -14.7086 -5.08982 -0.311479 66.7803 -0.736469 -0.252257 28.7808 1.3983e-005 2.32281e-005 -0.851119 6.40518 -90.2885 14.1108 -1.31698 1.99772 2.43896 -1.22778 2.05412 -20.0938 -1.85656 1.51009 -0.0811075 -1.85658 1.51007 99.8012 -43.3802 -86.0151 8.03003 26.3871 18.6018 58.8041 38.2124 -74.496 -9.44565 -0.457886 0.499752 -114.828 -63.0194 49.7321 -15.2668 -18.8735 -18.8986 -6.64194 -19.8629 -27.0242 13.8211 -2.08213 -18.2102 -0.727816 22.8167 21.2299 -19.8228 16.1605 25.3241 
13.6915 94.6466 -6.31768 -92.3994 -34.698 -97.0014 -170.368 3.28628 100.705 -13.3651 -3.53508 4.72947 31.2415 -0.76762 -2.00547 28.7808 2.91151e-006 4.20511e-006 176.529 4.1532 84.3605 -14.7766 -5.90283 -0.353011 67.0823 0.425764 0.36709 28.7808 1.3983e-005 2.32281e-005 -0.949061 6.38158 -90.3083 14.1645 -1.51128 1.99604 2.49279 -1.42188 2.06122 -20.042 -2.04208 1.45234 -0.0293555 -2.04206 1.45234 99.2674 -45.3483 -86.7869 9.04718 26.5448 18.1692 58.9537 34.8825 -75.8638 -4.07764 -0.282683 3.38204 -115.457 -62.323 48.6442 -15.2003 -20.2552 -13.6536 -10.0557 -12.7917 -47.6994 5.41507 0.271112 0.787246 -0.314846 24.0903 21.4698 -21.9135 16.7602 26.2213 
13.3246 94.6976 -6.76179 -92.5663 -33.529 -97.0872 -170.305 2.50709 100.606 -12.1223 -5.73382 4.75478 29.8138 0.237618 -1.03075 28.7808 2.91151e-006 4.20511e-006 176.639 3.90457 84.5482 -14.5582 -6.98795 -0.408867 67.3876 1.4023 0.877594 28.7808 1.3983e-005 2.32281e-005 -1.03401 6.35408 -90.2488 14.2247 -1.63573 2.10743 2.55298 -1.5414 2.17734 -19.9824 -2.1934 1.5185 0.0302453 -2.19341 1.51847 98.635 -47.8246 -87.6402 10.2347 26.1949 18.5329 54.8025 31.5809 -74.5241 3.48647 0.367217 5.87141 -115.233 -61.2713 48.4344 -16.4169 -19.2938 -14.7603 -5.96772 -8.09764 -49.7174 0.860477 0.0708334 1.36777 1.10789 25.4587 20.5243 -24.5349 17.2531 27.1994 
13.0033 94.7922 -7.12647 -93.1864 -32.5369 -97.6313 -170.23 1.42147 100.429 -11.1911 -7.33151 4.73367 28.708 1.49828 0.279904 28.7808 2.91151e-006 4.20511e-006 176.562 3.3701 84.4717 -14.562 -7.60585 -0.441139 67.416 1.97684 1.18357 28.7808 1.3983e-005 2.32281e-005 -1.103 6.36734 -90.1649 14.2029 -1.70169 2.30129 2.53086 -1.5988 2.37391 -20.0034 -2.31455 1.68361 0.00926055 -2.31457 1.68358 97.8804 -50.2703 -88.6322 11.0893 25.6891 19.1162 53.6874 30.6436 -74.2475 9.35938 1.15077 8.41251 -115.155 -60.2785 48.0677 -17.7149 -18.1353 -16.213 -5.90533 -7.31606 -52.7476 -0.83841 0.0275125 4.33369 3.01345 26.7156 18.9437 -27.3621 17.5775 28.2097 
12.8753 94.8447 -7.31954 -92.571 -32.2672 -97.225 -170.337 1.94318 100.314 -11.2492 -7.95442 4.64286 29.7202 1.93503 0.763181 28.7808 2.91151e-006 4.20511e-006 176.725 3.65481 84.7243 -14.0373 -7.00287 -0.406763 67.0457 2.21251 1.31356 28.7808 1.3983e-005 2.32281e-005 -1.169 6.27393 -90.0717 14.3915 -1.82793 2.39789 2.7195 -1.72067 2.47597 -19.8155 -2.46399 1.73781 0.197199 -2.464 1.73779 97.4769 -52.2884 -89.0736 13.128 24.2527 18.3135 51.8084 31.2985 -72.6514 8.74185 1.16863 9.54056 -115.412 -59.671 47.4604 -19.1317 -16.5525 -17.3021 -5.84628 -6.86769 -54.5623 -1.31363 -0.00434484 4.99531 5.45613 27.8527 17.5369 -30.0404 17.852 28.5578 
